<svg id="Layer_1" data-name="Layer 1" xmlns="http://www.w3.org/2000/svg" viewBox="0 0 370 238.64"><defs><style>.cls-1{fill:#eb712a;}.cls-2{fill:#0e1121;}.cls-3{fill:none;}</style></defs><polygon class="cls-1" points="170.53 126.31 140.06 126.31 140.06 2.57 170.53 2.57 170.53 64.44 170.53 126.31"/><polygon class="cls-2" points="229.94 76.41 229.94 126.31 176 126.31 229.94 76.41"/><polygon class="cls-2" points="229.94 52.47 229.94 2.57 176 2.57 229.94 52.47"/><path class="cls-2" d="M59,224.38v11.44H2.5V149.68H58.27v11.57H15.5V187.7h34v11.45h-34v25.23Z"/><path class="cls-2" d="M118.66,236h-13.8v-.74L92.27,215.27,79.68,235.21V236H66.14l11.64-18.1,8-12.92L66.68,174.54H80.22l12,19.56,12-19.56H118L98.9,204.93,107,217.85Z"/><path class="cls-2" d="M185.5,205.06c0,17.1-14.76,30.64-32.76,30.64s-32.9-13.54-32.9-30.64,14.76-30.65,32.9-30.65S185.5,188.07,185.5,205.06Zm-11.91,0c0-10.71-9.34-19.45-20.85-19.45s-21,8.74-21,19.45,9.34,19.44,21,19.44S173.59,215.76,173.59,205.06Z"/><path class="cls-2" d="M205.09,181.8a34.75,34.75,0,0,1,21-7v10.83c-11.77,0-19.9,8.86-21,19.32v30.89H192.91V174.17h12.18Z"/><path class="cls-2" d="M293.52,143.52V235.7H281.33v-7.14a33.73,33.73,0,0,1-20.71,7.14c-18.14,0-32.9-14-32.9-31S242.48,174,260.62,174a33.53,33.53,0,0,1,20.71,6.77V143.52Zm-12.19,63.75V202.1c-1.08-9.6-9.88-17-20.71-17-11.51,0-20.85,8.74-20.85,19.57s9.34,19.56,20.85,19.56C271.45,224.25,280.25,216.87,281.33,207.27Z"/><path class="cls-2" d="M367.5,205.18a22.06,22.06,0,0,1-.54,5.41h-52.8c2.44,8.37,10.56,14.28,20,14.28a19.94,19.94,0,0,0,11.37-3.2h16.79c-5.83,8.86-16.25,14.4-28.16,14.4-18,0-33-13.66-33-30.89s15-31,33-31C352.61,174.17,367.5,188,367.5,205.18Zm-53.34-5.54H354.5c-2.43-8.12-10.69-14.27-20.3-14.27A20.71,20.71,0,0,0,314.16,199.64Z"/><rect class="cls-3" width="370" height="238.64"/></svg>